# xmcd
#
# Track frame offsets:
#	150
#	17631
#	33931
#	52422
#	65568
#	78383
#	93849
#	109558
#	128846
#	143588
#	159639
#	176168
#	192734
#	209422
#	225209
#	243021
#	256133
#	272423
#	286483
#
# Disc length: 3987 seconds
#
# Revision: 1
# Processed by: cddbd v1.5.2PL0 Copyright (c) Steve Scherf et al.
# Submitted via: audiograbber 1.83.01
#
DISCID=050f9113
DTITLE=Various Artist - Hott Country 181
DYEAR=2011
DGENRE=Country
TTITLE0=Keith Urban - Without You
TTITLE1=Chris Young - Tomorrow
TTITLE2=Carolyn Dawn Johnson - Stop For Me
TTITLE3=Jason Greely - Live Our Lives
TTITLE4=Kenny Chesney - Live A Little ( Single Edit )
TTITLE5=Joanna Smith - Georgia Mud
TTITLE6=Walker Hayes - Why Wait For Summer
TTITLE7=Hayes Carll - Kmag Yoyo
TTITLE8=Victoria Banks - Come On
TTITLE9=Alison Krauss and Union Station - Paper Airplanes
TTITLE10=David Nail - Let It Rain
TTITLE11=Lisa Manis - Anymore
TTITLE12=Justin Moore - If Heavan Wasn't So Far Away
TTITLE13=Gretchen Wilson - I'd Love To Be Your LAst
TTITLE14=Greg Hanna - Makin' Real Love
TTITLE15=Hey Romeo - He Still Calls Me Baby
TTITLE16=Cooper Brothers Feat Jim Cuddy - Hard Luck Girl
TTITLE17=Chris Young - Voices ( Live Acoustic Version )
TTITLE18=Jimmy Buffett - Cheeseburger In Paradise ( 1978)
EXTD=March 2011
EXTT0=
EXTT1=
EXTT2=
EXTT3=
EXTT4=
EXTT5=
EXTT6=
EXTT7=
EXTT8=
EXTT9=
EXTT10=
EXTT11=
EXTT12=
EXTT13=
EXTT14=
EXTT15=
EXTT16=
EXTT17=
EXTT18=
PLAYORDER=
